# xmcd
#
# Track frame offsets:
#	150
#	24274
#	46428
#	69963
#	89739
#	111115
#	134991
#	159297
#	184843
#	207572
#	227776
#	251631
#	274827
#	296262
#
# Disc length: 4274 seconds
#
# Revision: 1
# Processed by: cddbd v1.5.2PL0 Copyright (c) Steve Scherf et al.
# Submitted via: EZCDAudioConverter 8.0.2.1
#
DISCID=d010b00e
DTITLE=Trường Vũ and Hồng Trúc - Cho Nguoi Tinh Nho
DYEAR=2002
DGENRE=blues
TTITLE0=Hồng Trúc - Cho người tình nhỏ
TTITLE1=Trường Vũ and Hồng Trúc - Trao người ở lại
TTITLE2=Hồng Trúc - Biển tuyết
TTITLE3=Chung Tử Lưu - Chị tôi
TTITLE4=Hồng Trúc - Chỉ có một người
TTITLE5=Trường Vũ and Hồng Trúc - Đêm trên đỉnh sầu
TTITLE6=Hồng Trúc - Một thuở yêu anh
TTITLE7=Lâm Gia Minh - Đẹp lòng người yêu
TTITLE8=Hồng Trúc - Người yêu cô đơn
TTITLE9=Hồng Trúc - Chuyện một loài hoa
TTITLE10=Kaoraoke - Cho người tình nhỏ
TTITLE11=Kaoraoke - Biển tuyết
TTITLE12=Kaoraoke - Chỉ có một người
TTITLE13=Kaoraoke - Một thuở yêu anh
EXTD=
EXTT0=
EXTT1=
EXTT2=
EXTT3=
EXTT4=
EXTT5=
EXTT6=
EXTT7=
EXTT8=
EXTT9=
EXTT10=
EXTT11=
EXTT12=
EXTT13=
PLAYORDER=
